<svg xmlns="http://www.w3.org/2000/svg" width="513" height="512" viewBox="0 0 513 512">
  <g fill="none" fill-rule="evenodd" transform="translate(0 -100)">
    <rect width="511" height="511" x=".5" y="100.5" fill="#000" stroke="#979797"/>
    <polygon fill="#FFF" points="186.255 419.6 234.705 277.31 217.365 237.53 190.845 232.94 190.845 185 352.515 185 352.515 232.94 321.915 237.53 387.705 419.09 389.745 419.09 439.215 237.53 406.575 232.94 406.575 185 512.145 185 512.145 232.94 484.605 237.53 401.475 542 328.035 542 257.145 346.16 193.905 542 119.445 542 24.075 237.53 .105 232.94 .105 185 157.695 185 157.695 232.94 128.625 237.53 184.215 419.6"/>
  </g>
</svg>
