<svg xmlns="http://www.w3.org/2000/svg" xmlns:xlink="http://www.w3.org/1999/xlink" width="120" height="15" viewBox="0 0 120 15">
  <defs>
    <path id="logo-a" d="M5.148,7.704 L5.148,18 L2.322,18 L2.322,7.704 L-0.018,7.704 L-0.018,5.256 L7.488,5.256 L7.488,7.704 L5.148,7.704 Z M14.436,18 L14.436,12.672 L11.466,12.672 L11.466,18 L8.604,18 L8.604,5.256 L11.466,5.256 L11.466,10.098 L14.436,10.098 L14.436,5.256 L17.298,5.256 L17.298,18 L14.436,18 Z M19.566,18 L19.566,5.256 L25.722,5.256 L25.722,7.794 L22.32,7.794 L22.32,10.296 L25.452,10.296 L25.452,12.672 L22.32,12.672 L22.32,15.426 L25.938,15.426 L25.938,18 L19.566,18 Z M41.706,18 L38.646,18 L37.08,9.45 L37.044,9.45 L35.496,18 L32.436,18 L30.042,5.256 L32.976,5.256 L34.29,14.13 L34.362,14.13 L35.748,5.256 L38.538,5.256 L39.978,14.13 L40.032,14.13 L41.328,5.256 L44.118,5.256 L41.706,18 Z M50.616,18 L50.094,15.678 L47.232,15.678 L46.71,18 L43.83,18 L46.926,5.256 L50.544,5.256 L53.622,18 L50.616,18 Z M48.708,8.028 L48.636,8.028 L47.556,13.446 L49.734,13.446 L48.708,8.028 Z M58.428,7.704 L58.428,18 L55.602,18 L55.602,7.704 L53.262,7.704 L53.262,5.256 L60.768,5.256 L60.768,7.704 L58.428,7.704 Z M61.884,18 L61.884,5.256 L68.04,5.256 L68.04,7.794 L64.638,7.794 L64.638,10.296 L67.77,10.296 L67.77,12.672 L64.638,12.672 L64.638,15.426 L68.256,15.426 L68.256,18 L61.884,18 Z M75.276,18 L73.566,12.924 L72.72,12.924 L72.72,18 L69.948,18 L69.948,5.256 L74.034,5.256 C75.2700062,5.256 76.2299966,5.57699679 76.914,6.219 C77.5980034,6.86100321 77.94,7.81799364 77.94,9.09 C77.94,9.55800234 77.8860005,9.97799814 77.778,10.35 C77.6699995,10.7220019 77.5290009,11.0399987 77.355,11.304 C77.1809991,11.5680013 76.9860011,11.7839992 76.77,11.952 C76.5539989,12.1200008 76.344001,12.2399996 76.14,12.312 L78.318,18 L75.276,18 Z M75.096,9.252 C75.096,8.92799838 75.0510005,8.66400102 74.961,8.46 C74.8709996,8.25599898 74.7540007,8.0940006 74.61,7.974 C74.4659993,7.8539994 74.3070009,7.77300021 74.133,7.731 C73.9589991,7.68899979 73.7880008,7.668 73.62,7.668 L72.72,7.668 L72.72,10.89 L73.566,10.89 C73.974002,10.89 74.3309985,10.7610013 74.637,10.503 C74.9430015,10.2449987 75.096,9.82800288 75.096,9.252 Z M82.584,7.866 L82.584,10.458 L85.626,10.458 L85.626,12.924 L82.602,12.924 L82.602,18 L79.686,18 L79.686,5.256 L85.896,5.256 L85.896,7.866 L82.584,7.866 Z M92.466,18 L91.944,15.678 L89.082,15.678 L88.56,18 L85.68,18 L88.776,5.256 L92.394,5.256 L95.472,18 L92.466,18 Z M90.558,8.028 L90.486,8.028 L89.406,13.446 L91.584,13.446 L90.558,8.028 Z M96.588,18 L96.588,5.256 L99.504,5.256 L99.504,15.336 L102.906,15.336 L102.906,18 L96.588,18 Z M104.202,18 L104.202,5.256 L107.118,5.256 L107.118,15.336 L110.52,15.336 L110.52,18 L104.202,18 Z M117.09,8.316 C116.873999,8.06399874 116.622001,7.86900069 116.334,7.731 C116.045999,7.59299931 115.746002,7.524 115.434,7.524 C115.109998,7.524 114.819001,7.62599898 114.561,7.83 C114.302999,8.03400102 114.174,8.36999766 114.174,8.838 C114.174,9.23400198 114.305999,9.54299889 114.57,9.765 C114.834001,9.98700111 115.223997,10.2299987 115.74,10.494 C116.028001,10.6380007 116.330998,10.808999 116.649,11.007 C116.967002,11.205001 117.257999,11.4479986 117.522,11.736 C117.786001,12.0240014 118.004999,12.368998 118.179,12.771 C118.353001,13.173002 118.44,13.6499972 118.44,14.202 C118.44,14.8860034 118.332001,15.4889974 118.116,16.011 C117.899999,16.5330026 117.609002,16.9649983 117.243,17.307 C116.876998,17.6490017 116.454002,17.9069991 115.974,18.081 C115.493998,18.2550009 114.996003,18.342 114.48,18.342 C113.711996,18.342 113.013003,18.1980014 112.383,17.91 C111.752997,17.6219986 111.246002,17.2860019 110.862,16.902 L112.338,14.742 C112.614001,15.0300014 112.931998,15.2609991 113.292,15.435 C113.652002,15.6090009 114.017998,15.696 114.39,15.696 C114.738002,15.696 115.031999,15.5820011 115.272,15.354 C115.512001,15.1259989 115.632,14.808002 115.632,14.4 C115.632,13.9799979 115.488001,13.6470012 115.2,13.401 C114.911999,13.1549988 114.492003,12.8940014 113.94,12.618 C113.591998,12.4499992 113.265002,12.264001 112.959,12.06 C112.652998,11.855999 112.383001,11.6100014 112.149,11.322 C111.914999,11.0339986 111.732001,10.6980019 111.6,10.314 C111.467999,9.92999808 111.402,9.47400264 111.402,8.946 C111.402,8.23799646 111.518999,7.62900255 111.753,7.119 C111.987001,6.60899745 112.292998,6.19200162 112.671,5.868 C113.049002,5.54399838 113.468998,5.30400078 113.931,5.148 C114.393002,4.99199922 114.857998,4.914 115.326,4.914 C116.022003,4.914 116.645997,5.02799886 117.198,5.256 C117.750003,5.48400114 118.211998,5.79599802 118.584,6.192 L117.09,8.316 Z"/>
  </defs>
  <g fill="none" fill-rule="evenodd" transform="translate(1 -4)">
    <use fill="#000" xlink:href="#logo-a"/>
    <use fill="#FD461E" xlink:href="#logo-a"/>
  </g>
</svg>
